# Blender 4.1.0
# www.blender.org
o sticker.001
v -0.840000 2.706667 2.800000
v -0.933333 2.706667 2.706667
v -0.840000 2.730814 2.796822
v -0.840000 2.753341 2.787491
v -0.840000 2.772663 2.772663
v -0.864148 2.706667 2.796822
v -0.864908 2.731780 2.793038
v -0.864501 2.753484 2.783601
v -0.864000 2.770414 2.770474
v -0.886674 2.706667 2.787491
v -0.886842 2.731309 2.783541
v -0.884458 2.751146 2.775631
v -0.882502 2.765420 2.765426
v -0.893886 2.760553 2.760553
v -0.930155 2.706667 2.730814
v -0.920825 2.706667 2.753341
v -0.905997 2.706667 2.772663
v -0.926371 2.731575 2.731780
v -0.916935 2.731168 2.753484
v -0.903807 2.730667 2.770414
v -0.908965 2.751125 2.751146
v -0.898760 2.749169 2.765420
v 0.840000 2.706667 2.800000
v 0.933333 2.706667 2.706667
v 0.864148 2.706667 2.796822
v 0.886674 2.706667 2.787491
v 0.905997 2.706667 2.772663
v 0.840000 2.730814 2.796822
v 0.865113 2.731575 2.793038
v 0.886817 2.731168 2.783601
v 0.903748 2.730667 2.770474
v 0.840000 2.753341 2.787491
v 0.864642 2.753509 2.783541
v 0.884480 2.751125 2.775631
v 0.898753 2.749169 2.765426
v 0.893886 2.760553 2.760553
v 0.930155 2.706667 2.730814
v 0.926371 2.731780 2.731575
v 0.920825 2.706667 2.753341
v 0.916874 2.731309 2.753509
v 0.908965 2.751146 2.751125
v 0.840000 2.772663 2.772663
v 0.864000 2.770474 2.770414
v 0.882502 2.765426 2.765420
v -0.840000 1.497918 2.800000
v -0.933333 1.493333 2.706667
v -0.864156 1.496732 2.796820
v -0.886667 1.495626 2.787496
v -0.905997 1.494676 2.772663
v -0.920829 1.493948 2.753333
v -0.930153 1.493490 2.730823
v -0.368748 1.026667 2.800000
v -0.373333 0.933333 2.706667
v -0.369935 1.002510 2.796820
v -0.371041 0.980000 2.787496
v -0.371990 0.960670 2.772663
v -0.372719 0.945838 2.753333
v -0.373177 0.936514 2.730823
v -0.830590 1.402380 2.800000
v -0.922573 1.384083 2.706667
v -0.854397 1.397644 2.796820
v -0.876582 1.393231 2.787496
v -0.895632 1.389442 2.772663
v -0.910250 1.386534 2.753333
v -0.919439 1.384706 2.730823
v -0.804060 1.314921 2.800000
v -0.890706 1.279031 2.706667
v -0.826486 1.305632 2.796820
v -0.847383 1.296976 2.787496
v -0.865328 1.289542 2.772663
v -0.879098 1.283839 2.753333
v -0.887754 1.280254 2.730823
v -0.760977 1.234318 2.800000
v -0.838956 1.182214 2.706667
v -0.781160 1.220833 2.796820
v -0.799967 1.208266 2.787496
v -0.816117 1.197475 2.772663
v -0.828509 1.189195 2.753333
v -0.836299 1.183989 2.730823
v -0.702997 1.163669 2.800000
v -0.769313 1.097354 2.706667
v -0.720161 1.146506 2.796820
v -0.736155 1.130512 2.787496
v -0.749890 1.116777 2.772663
v -0.760428 1.106238 2.753333
v -0.767053 1.099613 2.730823
v -0.632349 1.105690 2.800000
v -0.684453 1.027710 2.706667
v -0.645834 1.085507 2.796820
v -0.658401 1.066700 2.787496
v -0.669192 1.050550 2.772663
v -0.677472 1.038158 2.753333
v -0.682677 1.030367 2.730823
v -0.551746 1.062607 2.800000
v -0.587636 0.975961 2.706667
v -0.561035 1.040181 2.796820
v -0.569691 1.019284 2.787496
v -0.577124 1.001339 2.772663
v -0.582828 0.987569 2.753333
v -0.586413 0.978913 2.730823
v -0.464287 1.036076 2.800000
v -0.482584 0.944094 2.706667
v -0.469023 1.012269 2.796820
v -0.473436 0.990085 2.787496
v -0.477225 0.971035 2.772663
v -0.480133 0.956417 2.753333
v -0.481960 0.947228 2.730823
v 0.368748 1.026667 2.800000
v 0.373333 0.933333 2.706667
v 0.369935 1.002510 2.796820
v 0.371041 0.980000 2.787496
v 0.371990 0.960670 2.772663
v 0.372719 0.945838 2.753333
v 0.373177 0.936514 2.730823
v 0.840000 1.497918 2.800000
v 0.933333 1.493333 2.706667
v 0.864156 1.496732 2.796820
v 0.886667 1.495626 2.787496
v 0.905997 1.494676 2.772663
v 0.920829 1.493948 2.753333
v 0.930153 1.493490 2.730823
v 0.464287 1.036076 2.800000
v 0.482584 0.944094 2.706667
v 0.469023 1.012269 2.796820
v 0.473436 0.990085 2.787496
v 0.477225 0.971035 2.772663
v 0.480133 0.956417 2.753333
v 0.481960 0.947228 2.730823
v 0.551746 1.062607 2.800000
v 0.587636 0.975961 2.706667
v 0.561035 1.040181 2.796820
v 0.569691 1.019284 2.787496
v 0.577124 1.001339 2.772663
v 0.582828 0.987569 2.753333
v 0.586413 0.978913 2.730823
v 0.632349 1.105690 2.800000
v 0.684453 1.027710 2.706667
v 0.645834 1.085507 2.796820
v 0.658401 1.066700 2.787496
v 0.669192 1.050550 2.772663
v 0.677472 1.038158 2.753333
v 0.682677 1.030367 2.730823
v 0.702997 1.163669 2.800000
v 0.769313 1.097354 2.706667
v 0.720161 1.146506 2.796820
v 0.736155 1.130512 2.787496
v 0.749890 1.116777 2.772663
v 0.760428 1.106238 2.753333
v 0.767053 1.099613 2.730823
v 0.760977 1.234318 2.800000
v 0.838956 1.182214 2.706667
v 0.781160 1.220833 2.796820
v 0.799967 1.208266 2.787496
v 0.816117 1.197475 2.772663
v 0.828509 1.189195 2.753333
v 0.836299 1.183989 2.730823
v 0.804060 1.314921 2.800000
v 0.890706 1.279031 2.706667
v 0.826486 1.305632 2.796820
v 0.847383 1.296976 2.787496
v 0.865328 1.289542 2.772663
v 0.879098 1.283839 2.753333
v 0.887754 1.280254 2.730823
v 0.830590 1.402380 2.800000
v 0.922573 1.384083 2.706667
v 0.854397 1.397644 2.796820
v 0.876582 1.393231 2.787496
v 0.895632 1.389442 2.772663
v 0.910250 1.386534 2.753333
v 0.919439 1.384706 2.730823
vn -0.0669 0.0669 0.9955
vn -0.9903 0.0476 0.1303
vn -0.0678 0.2592 0.9634
vn -0.0648 0.4989 0.8642
vn -0.0621 0.6091 0.7907
vn -0.2595 0.0681 0.9633
vn -0.2623 0.2634 0.9283
vn -0.2502 0.4951 0.8321
vn -0.2393 0.5968 0.7658
vn -0.4987 0.0654 0.8643
vn -0.4950 0.2511 0.8318
vn -0.4635 0.4637 0.7551
vn -0.4368 0.5586 0.7051
vn -0.5760 0.5271 0.6248
vn -0.9638 0.0698 0.2574
vn -0.8642 0.0648 0.4989
vn -0.7056 0.0628 0.7058
vn -0.9243 0.1959 0.3275
vn -0.8323 0.2512 0.4942
vn -0.6865 0.2410 0.6861
vn -0.7524 0.4034 0.5207
vn -0.6350 0.4358 0.6379
vn 0.0669 0.0669 0.9955
vn 0.9903 0.0479 0.1303
vn 0.2592 0.0678 0.9634
vn 0.4989 0.0648 0.8642
vn 0.7058 0.0628 0.7056
vn 0.0681 0.2595 0.9633
vn 0.2634 0.2623 0.9283
vn 0.4951 0.2502 0.8321
vn 0.6861 0.2410 0.6865
vn 0.0654 0.4987 0.8643
vn 0.2511 0.4950 0.8318
vn 0.4637 0.4635 0.7551
vn 0.6348 0.4358 0.6381
vn 0.5760 0.5271 0.6248
vn 0.9637 0.0701 0.2576
vn 0.9244 0.1967 0.3267
vn 0.8643 0.0654 0.4987
vn 0.8320 0.2521 0.4942
vn 0.7526 0.4037 0.5203
vn 0.0625 0.6090 0.7907
vn 0.2393 0.5971 0.7657
vn 0.4368 0.5589 0.7048
vn -0.0673 -0.0033 0.9977
vn -0.9902 -0.0486 0.1307
vn -0.2620 -0.0129 0.9650
vn -0.5020 -0.0247 0.8645
vn -0.7079 -0.0348 0.7055
vn -0.8657 -0.0425 0.4987
vn -0.9650 -0.0474 0.2581
vn -0.0033 -0.0673 0.9977
vn -0.0486 -0.9902 0.1307
vn -0.0129 -0.2620 0.9650
vn -0.0247 -0.5020 0.8645
vn -0.0348 -0.7079 0.7055
vn -0.0425 -0.8657 0.4987
vn -0.0474 -0.9650 0.2581
vn -0.0678 -0.0135 0.9976
vn -0.9723 -0.1934 0.1311
vn -0.2601 -0.0517 0.9642
vn -0.4946 -0.0984 0.8635
vn -0.6959 -0.1384 0.7047
vn -0.8504 -0.1692 0.4982
vn -0.9476 -0.1885 0.2579
vn -0.0639 -0.0265 0.9976
vn -0.9159 -0.3794 0.1311
vn -0.2451 -0.1015 0.9642
vn -0.4659 -0.1930 0.8635
vn -0.6555 -0.2715 0.7047
vn -0.8010 -0.3318 0.4982
vn -0.8926 -0.3697 0.2579
vn -0.0575 -0.0384 0.9976
vn -0.8243 -0.5508 0.1311
vn -0.2205 -0.1474 0.9642
vn -0.4193 -0.2802 0.8635
vn -0.5899 -0.3942 0.7047
vn -0.7209 -0.4817 0.4982
vn -0.8033 -0.5368 0.2579
vn -0.0489 -0.0489 0.9976
vn -0.7010 -0.7010 0.1311
vn -0.1876 -0.1876 0.9642
vn -0.3566 -0.3566 0.8635
vn -0.5017 -0.5017 0.7047
vn -0.6131 -0.6131 0.4982
vn -0.6832 -0.6832 0.2579
vn -0.0384 -0.0575 0.9976
vn -0.5508 -0.8243 0.1311
vn -0.1474 -0.2205 0.9642
vn -0.2802 -0.4193 0.8635
vn -0.3942 -0.5899 0.7047
vn -0.4817 -0.7209 0.4982
vn -0.5368 -0.8033 0.2579
vn -0.0265 -0.0639 0.9976
vn -0.3794 -0.9159 0.1311
vn -0.1015 -0.2451 0.9642
vn -0.1930 -0.4659 0.8635
vn -0.2715 -0.6555 0.7047
vn -0.3318 -0.8010 0.4982
vn -0.3697 -0.8926 0.2579
vn -0.0135 -0.0678 0.9976
vn -0.1934 -0.9723 0.1311
vn -0.0517 -0.2601 0.9642
vn -0.0984 -0.4946 0.8635
vn -0.1384 -0.6959 0.7047
vn -0.1692 -0.8504 0.4982
vn -0.1885 -0.9476 0.2579
vn 0.0033 -0.0673 0.9977
vn 0.0486 -0.9902 0.1307
vn 0.0129 -0.2620 0.9650
vn 0.0247 -0.5020 0.8645
vn 0.0348 -0.7079 0.7055
vn 0.0425 -0.8657 0.4987
vn 0.0474 -0.9650 0.2581
vn 0.0673 -0.0033 0.9977
vn 0.9902 -0.0486 0.1307
vn 0.2620 -0.0129 0.9650
vn 0.5020 -0.0247 0.8645
vn 0.7079 -0.0348 0.7055
vn 0.8657 -0.0425 0.4987
vn 0.9650 -0.0474 0.2581
vn 0.0135 -0.0678 0.9976
vn 0.1934 -0.9723 0.1311
vn 0.0517 -0.2601 0.9642
vn 0.0984 -0.4946 0.8635
vn 0.1384 -0.6959 0.7047
vn 0.1692 -0.8504 0.4982
vn 0.1885 -0.9476 0.2579
vn 0.0265 -0.0639 0.9976
vn 0.3794 -0.9159 0.1311
vn 0.1015 -0.2451 0.9642
vn 0.1930 -0.4659 0.8635
vn 0.2715 -0.6555 0.7047
vn 0.3318 -0.8010 0.4982
vn 0.3697 -0.8926 0.2579
vn 0.0384 -0.0575 0.9976
vn 0.5508 -0.8243 0.1311
vn 0.1474 -0.2205 0.9642
vn 0.2802 -0.4193 0.8635
vn 0.3942 -0.5899 0.7047
vn 0.4817 -0.7209 0.4982
vn 0.5368 -0.8033 0.2579
vn 0.0489 -0.0489 0.9976
vn 0.7010 -0.7010 0.1311
vn 0.1876 -0.1876 0.9642
vn 0.3566 -0.3566 0.8635
vn 0.5017 -0.5017 0.7047
vn 0.6131 -0.6131 0.4982
vn 0.6832 -0.6832 0.2579
vn 0.0575 -0.0384 0.9976
vn 0.8243 -0.5508 0.1311
vn 0.2205 -0.1474 0.9642
vn 0.4193 -0.2802 0.8635
vn 0.5899 -0.3942 0.7047
vn 0.7209 -0.4817 0.4982
vn 0.8033 -0.5368 0.2579
vn 0.0639 -0.0265 0.9976
vn 0.9159 -0.3794 0.1311
vn 0.2451 -0.1015 0.9642
vn 0.4659 -0.1930 0.8635
vn 0.6555 -0.2715 0.7047
vn 0.8010 -0.3318 0.4982
vn 0.8926 -0.3697 0.2579
vn 0.0678 -0.0135 0.9976
vn 0.9723 -0.1934 0.1311
vn 0.2601 -0.0517 0.9642
vn 0.4946 -0.0984 0.8635
vn 0.6959 -0.1384 0.7047
vn 0.8504 -0.1692 0.4982
vn 0.9476 -0.1885 0.2579
vt 0.637500 0.575614
vt 0.638760 0.562819
vt 0.642313 0.551105
vt 0.648083 0.540311
vt 0.655849 0.530849
vt 0.665310 0.523083
vt 0.676105 0.517313
vt 0.687819 0.513760
vt 0.700614 0.512500
vt 0.862500 0.512500
vt 0.862500 0.737500
vt 0.700614 0.737500
vt 0.687819 0.736240
vt 0.676105 0.732687
vt 0.665310 0.726916
vt 0.655849 0.719151
vt 0.648083 0.709690
vt 0.642313 0.698895
vt 0.638760 0.687181
vt 0.637500 0.674386
vt 0.865734 0.737500
vt 0.865863 0.740836
vt 0.862500 0.740734
vt 0.868751 0.737500
vt 0.868770 0.740781
vt 0.875000 0.737500
vt 0.875000 0.740714
vt 0.865800 0.743773
vt 0.862500 0.743751
vt 0.868457 0.743454
vt 0.875000 0.743192
vt 0.865714 0.750000
vt 0.862500 0.750000
vt 0.868192 0.750000
vt 0.875000 0.744717
vt 0.615734 0.987500
vt 0.615863 0.990836
vt 0.612500 0.987500
vt 0.618751 0.987500
vt 0.618770 0.990781
vt 0.625000 0.987500
vt 0.625000 0.990714
vt 0.618457 0.993454
vt 0.625000 0.993192
vt 0.862500 0.509266
vt 0.865836 0.509137
vt 0.865734 0.512500
vt 0.862500 0.506249
vt 0.865781 0.506230
vt 0.862500 0.500000
vt 0.865714 0.500000
vt 0.868774 0.509200
vt 0.868751 0.512500
vt 0.868454 0.506543
vt 0.868192 0.500000
vt 0.875000 0.509286
vt 0.875000 0.512500
vt 0.875000 0.506808
vt 0.869717 0.500000
vt 0.625000 0.256808
vt 0.618454 0.256543
vt 0.615734 0.262500
vt 0.615836 0.259137
vt 0.618774 0.259200
vt 0.618751 0.262500
vt 0.625000 0.259286
vt 0.625000 0.262500
vt 0.612500 0.262500
vt 0.634265 0.575455
vt 0.635572 0.562184
vt 0.631250 0.575307
vt 0.632601 0.561594
vt 0.625004 0.575000
vt 0.625703 0.560727
vt 0.618750 0.575000
vt 0.618750 0.560532
vt 0.615735 0.575000
vt 0.615735 0.560410
vt 0.612500 0.575000
vt 0.612500 0.560368
vt 0.639310 0.549861
vt 0.636511 0.548702
vt 0.626546 0.560023
vt 0.630604 0.546644
vt 0.625000 0.546644
vt 0.625000 0.560023
vt 0.618750 0.560210
vt 0.618750 0.546457
vt 0.615735 0.560328
vt 0.615735 0.546339
vt 0.612500 0.560368
vt 0.612500 0.546299
vt 0.645380 0.538504
vt 0.642862 0.536821
vt 0.630879 0.545981
vt 0.637470 0.533650
vt 0.625000 0.533650
vt 0.625000 0.545981
vt 0.618750 0.546153
vt 0.618750 0.533478
vt 0.615735 0.546262
vt 0.615735 0.533369
vt 0.612500 0.533332
vt 0.653550 0.528550
vt 0.651408 0.526408
vt 0.637869 0.533054
vt 0.646738 0.522246
vt 0.625000 0.500817
vt 0.625000 0.532515
vt 0.618750 0.532958
vt 0.618750 0.500374
vt 0.615735 0.533237
vt 0.615735 0.500095
vt 0.612500 0.500000
vt 0.663504 0.520380
vt 0.661821 0.517862
vt 0.647246 0.521738
vt 0.658054 0.512869
vt 0.625000 0.467485
vt 0.625000 0.499182
vt 0.618750 0.499626
vt 0.618750 0.467042
vt 0.615735 0.499905
vt 0.615735 0.466763
vt 0.612500 0.466668
vt 0.674861 0.514310
vt 0.673702 0.511511
vt 0.658650 0.512470
vt 0.670981 0.505879
vt 0.625000 0.454019
vt 0.625000 0.466350
vt 0.618750 0.466522
vt 0.618750 0.453847
vt 0.615735 0.466631
vt 0.615735 0.453738
vt 0.612500 0.466668
vt 0.612500 0.453701
vt 0.687184 0.510572
vt 0.686594 0.507601
vt 0.671644 0.505604
vt 0.685023 0.501546
vt 0.625000 0.439977
vt 0.625000 0.453356
vt 0.618750 0.453543
vt 0.618750 0.439790
vt 0.615735 0.453661
vt 0.615735 0.439672
vt 0.612500 0.439632
vt 0.700455 0.509265
vt 0.700307 0.506250
vt 0.685727 0.501406
vt 0.699821 0.500018
vt 0.625000 0.425179
vt 0.625000 0.439273
vt 0.618750 0.439468
vt 0.618750 0.425082
vt 0.615735 0.439590
vt 0.615735 0.425021
vt 0.612500 0.439632
vt 0.612500 0.425000
vt 0.700455 0.740735
vt 0.687185 0.739428
vt 0.700307 0.743750
vt 0.686594 0.742399
vt 0.699821 0.749982
vt 0.685727 0.748594
vt 0.625000 0.810727
vt 0.625000 0.824821
vt 0.618750 0.824918
vt 0.618750 0.810532
vt 0.615735 0.824979
vt 0.615735 0.810410
vt 0.612500 0.825000
vt 0.612500 0.810368
vt 0.674861 0.735690
vt 0.673702 0.738489
vt 0.685023 0.748454
vt 0.671644 0.744396
vt 0.625000 0.796644
vt 0.625000 0.810023
vt 0.618750 0.810210
vt 0.618750 0.796457
vt 0.615735 0.810328
vt 0.615735 0.796339
vt 0.612500 0.810368
vt 0.612500 0.796299
vt 0.663504 0.729620
vt 0.661821 0.732138
vt 0.670981 0.744121
vt 0.658650 0.737530
vt 0.625000 0.783650
vt 0.625000 0.795981
vt 0.618750 0.796153
vt 0.618750 0.783478
vt 0.615735 0.796262
vt 0.615735 0.783369
vt 0.612500 0.783332
vt 0.653550 0.721450
vt 0.651408 0.723592
vt 0.658054 0.737131
vt 0.647246 0.728262
vt 0.625000 0.750817
vt 0.625000 0.782515
vt 0.618750 0.782958
vt 0.618750 0.750374
vt 0.615735 0.783237
vt 0.615735 0.750095
vt 0.612500 0.783332
vt 0.612500 0.750000
vt 0.645380 0.711496
vt 0.642862 0.713179
vt 0.646738 0.727754
vt 0.637869 0.716947
vt 0.625000 0.717485
vt 0.625000 0.749183
vt 0.618750 0.749626
vt 0.618750 0.717042
vt 0.615735 0.749905
vt 0.615735 0.716763
vt 0.612500 0.750000
vt 0.612500 0.716668
vt 0.639310 0.700139
vt 0.636511 0.701298
vt 0.637470 0.716350
vt 0.630879 0.704019
vt 0.625000 0.704019
vt 0.625000 0.716350
vt 0.618750 0.716522
vt 0.618750 0.703847
vt 0.615735 0.716631
vt 0.615735 0.703738
vt 0.612500 0.716668
vt 0.612500 0.703701
vt 0.635572 0.687815
vt 0.632601 0.688407
vt 0.630604 0.703356
vt 0.626546 0.689977
vt 0.625000 0.689977
vt 0.625000 0.703356
vt 0.618750 0.703543
vt 0.618750 0.689790
vt 0.615735 0.703661
vt 0.615735 0.689672
vt 0.612500 0.689632
vt 0.634265 0.674545
vt 0.631250 0.674693
vt 0.625703 0.689273
vt 0.625004 0.675000
vt 0.618750 0.689468
vt 0.618750 0.675000
vt 0.615735 0.689590
vt 0.615735 0.675000
vt 0.612500 0.689632
vt 0.612500 0.675000
vt 0.700180 0.750000
vt 0.625000 0.825180
vt 0.618750 0.825082
vt 0.615735 0.825021
vt 0.700180 0.500000
vt 0.625000 0.424820
vt 0.618750 0.424918
vt 0.615735 0.424979
s 1
f 108/1/108 122/2/122 129/3/129 136/4/136 143/5/143 150/6/150 157/7/157 164/8/164 115/9/115 23/10/23 1/11/1 45/12/45 59/13/59 66/14/66 73/15/73 80/16/80 87/17/87 94/18/94 101/19/101 52/20/52
f 1/11/1 3/21/3 7/22/7 6/23/6
f 3/21/3 4/24/4 8/25/8 7/22/7
f 4/24/4 5/26/5 9/27/9 8/25/8
f 6/23/6 7/22/7 11/28/11 10/29/10
f 7/22/7 8/25/8 12/30/12 11/28/11
f 8/25/8 9/27/9 13/31/13 12/30/12
f 10/29/10 11/28/11 20/32/20 17/33/17
f 11/28/11 12/30/12 22/34/22 20/32/20
f 12/30/12 13/31/13 14/35/14 22/34/22
f 15/36/15 18/37/18 2/38/2
f 15/36/15 16/39/16 19/40/19 18/37/18
f 16/39/16 17/41/17 20/42/20 19/40/19
f 18/37/18 19/40/19 21/43/21
f 19/40/19 20/42/20 22/44/22 21/43/21
f 22/44/22 14/35/14 21/43/21
f 23/10/23 25/45/25 29/46/29 28/47/28
f 25/45/25 26/48/26 30/49/30 29/46/29
f 26/48/26 27/50/27 31/51/31 30/49/30
f 28/47/28 29/46/29 33/52/33 32/53/32
f 29/46/29 30/49/30 34/54/34 33/52/33
f 30/49/30 31/51/31 35/55/35 34/54/34
f 32/53/32 33/52/33 43/56/43 42/57/42
f 33/52/33 34/54/34 44/58/44 43/56/43
f 34/54/34 35/55/35 36/59/36 44/58/44
f 35/60/35 41/61/41 36/59/36
f 37/62/37 38/63/38 40/64/40 39/65/39
f 40/64/40 38/63/38 41/61/41
f 39/65/39 40/64/40 31/66/31 27/67/27
f 40/64/40 41/61/41 35/60/35 31/66/31
f 37/62/37 24/68/24 38/63/38
f 1/11/1 23/10/23 28/47/28 3/21/3
f 3/21/3 28/47/28 32/53/32 4/24/4
f 4/24/4 32/53/32 42/57/42 5/26/5
f 122/2/122 108/1/108 110/69/110 124/70/124
f 124/70/124 110/69/110 111/71/111 125/72/125
f 125/72/125 111/71/111 112/73/112 126/74/126
f 126/74/126 112/73/112 113/75/113 127/76/127
f 127/76/127 113/75/113 114/77/114 128/78/128
f 128/78/128 114/77/114 109/79/109 123/80/123
f 129/3/129 122/2/122 124/70/124 131/81/131
f 131/81/131 124/70/124 125/72/125 132/82/132
f 132/82/132 125/72/125 126/83/126 133/84/133
f 133/85/133 126/86/126 127/87/127 134/88/134
f 134/88/134 127/87/127 128/89/128 135/90/135
f 135/90/135 128/89/128 123/91/123 130/92/130
f 136/4/136 129/3/129 131/81/131 138/93/138
f 138/93/138 131/81/131 132/82/132 139/94/139
f 139/94/139 132/82/132 133/95/133 140/96/140
f 140/97/140 133/98/133 134/99/134 141/100/141
f 141/100/141 134/99/134 135/101/135 142/102/142
f 142/102/142 135/101/135 130/92/130 137/103/137
f 143/5/143 136/4/136 138/93/138 145/104/145
f 145/104/145 138/93/138 139/94/139 146/105/146
f 146/105/146 139/94/139 140/106/140 147/107/147
f 147/108/147 140/109/140 141/110/141 148/111/148
f 148/111/148 141/110/141 142/112/142 149/113/149
f 149/113/149 142/112/142 137/103/137 144/114/144
f 150/6/150 143/5/143 145/104/145 152/115/152
f 152/115/152 145/104/145 146/105/146 153/116/153
f 153/116/153 146/105/146 147/117/147 154/118/154
f 154/119/154 147/120/147 148/121/148 155/122/155
f 155/122/155 148/121/148 149/123/149 156/124/156
f 156/124/156 149/123/149 144/114/144 151/125/151
f 157/7/157 150/6/150 152/115/152 159/126/159
f 159/126/159 152/115/152 153/116/153 160/127/160
f 160/127/160 153/116/153 154/128/154 161/129/161
f 161/130/161 154/131/154 155/132/155 162/133/162
f 162/133/162 155/132/155 156/134/156 163/135/163
f 163/135/163 156/134/156 151/136/151 158/137/158
f 164/8/164 157/7/157 159/126/159 166/138/166
f 166/138/166 159/126/159 160/127/160 167/139/167
f 167/139/167 160/127/160 161/140/161 168/141/168
f 168/142/168 161/143/161 162/144/162 169/145/169
f 169/145/169 162/144/162 163/146/163 170/147/170
f 170/147/170 163/146/163 158/137/158 165/148/165
f 115/9/115 164/8/164 166/138/166 117/149/117
f 117/149/117 166/138/166 167/139/167 118/150/118
f 118/150/118 167/139/167 168/151/168 119/152/119
f 119/153/119 168/154/168 169/155/169 120/156/120
f 120/156/120 169/155/169 170/157/170 121/158/121
f 121/158/121 170/157/170 165/159/165 116/160/116
f 59/13/59 45/12/45 47/161/47 61/162/61
f 61/162/61 47/161/47 48/163/48 62/164/62
f 62/164/62 48/163/48 49/165/49 63/166/63
f 63/167/63 49/168/49 50/169/50 64/170/64
f 64/170/64 50/169/50 51/171/51 65/172/65
f 65/172/65 51/171/51 46/173/46 60/174/60
f 66/14/66 59/13/59 61/162/61 68/175/68
f 68/175/68 61/162/61 62/164/62 69/176/69
f 69/176/69 62/164/62 63/177/63 70/178/70
f 70/179/70 63/180/63 64/181/64 71/182/71
f 71/182/71 64/181/64 65/183/65 72/184/72
f 72/184/72 65/183/65 60/185/60 67/186/67
f 73/15/73 66/14/66 68/175/68 75/187/75
f 75/187/75 68/175/68 69/176/69 76/188/76
f 76/188/76 69/176/69 70/189/70 77/190/77
f 77/191/77 70/192/70 71/193/71 78/194/78
f 78/194/78 71/193/71 72/195/72 79/196/79
f 79/196/79 72/195/72 67/186/67 74/197/74
f 80/16/80 73/15/73 75/187/75 82/198/82
f 82/198/82 75/187/75 76/188/76 83/199/83
f 83/199/83 76/188/76 77/200/77 84/201/84
f 84/202/84 77/203/77 78/204/78 85/205/85
f 85/205/85 78/204/78 79/206/79 86/207/86
f 86/207/86 79/206/79 74/208/74 81/209/81
f 87/17/87 80/16/80 82/198/82 89/210/89
f 89/210/89 82/198/82 83/199/83 90/211/90
f 90/211/90 83/199/83 84/212/84 91/213/91
f 91/214/91 84/215/84 85/216/85 92/217/92
f 92/217/92 85/216/85 86/218/86 93/219/93
f 93/219/93 86/218/86 81/220/81 88/221/88
f 94/18/94 87/17/87 89/210/89 96/222/96
f 96/222/96 89/210/89 90/211/90 97/223/97
f 97/223/97 90/211/90 91/224/91 98/225/98
f 98/226/98 91/227/91 92/228/92 99/229/99
f 99/229/99 92/228/92 93/230/93 100/231/100
f 100/231/100 93/230/93 88/232/88 95/233/95
f 101/19/101 94/18/94 96/222/96 103/234/103
f 103/234/103 96/222/96 97/223/97 104/235/104
f 104/235/104 97/223/97 98/236/98 105/237/105
f 105/238/105 98/239/98 99/240/99 106/241/106
f 106/241/106 99/240/99 100/242/100 107/243/107
f 107/243/107 100/242/100 95/233/95 102/244/102
f 52/20/52 101/19/101 103/234/103 54/245/54
f 54/245/54 103/234/103 104/235/104 55/246/55
f 55/246/55 104/235/104 105/247/105 56/248/56
f 56/248/56 105/247/105 106/249/106 57/250/57
f 57/250/57 106/249/106 107/251/107 58/252/58
f 58/252/58 107/251/107 102/253/102 53/254/53
f 45/12/45 1/11/1 6/23/6 47/161/47
f 47/161/47 6/23/6 10/29/10 48/163/48
f 48/163/48 10/29/10 17/33/17 49/255/49
f 49/256/49 17/41/17 16/39/16 50/257/50
f 50/257/50 16/39/16 15/36/15 51/258/51
f 51/258/51 15/36/15 2/38/2 46/173/46
f 23/10/23 115/9/115 117/149/117 25/45/25
f 25/45/25 117/149/117 118/150/118 26/48/26
f 26/48/26 118/150/118 119/259/119 27/50/27
f 27/67/27 119/260/119 120/261/120 39/65/39
f 39/65/39 120/261/120 121/262/121 37/62/37
f 37/62/37 121/262/121 116/160/116 24/68/24
f 108/1/108 52/20/52 54/245/54 110/69/110
f 110/69/110 54/245/54 55/246/55 111/71/111
f 111/71/111 55/246/55 56/248/56 112/73/112
f 112/73/112 56/248/56 57/250/57 113/75/113
f 113/75/113 57/250/57 58/252/58 114/77/114
f 114/77/114 58/252/58 53/254/53 109/79/109
o inside.001
v -0.933333 1.493333 1.493333
v 0.933333 1.493333 1.493333
v -0.933333 2.706667 2.706667
v 0.933333 2.706667 2.706667
v -0.933333 1.493333 2.706667
v -0.373333 0.933333 2.706667
v -0.922573 1.384083 2.706667
v -0.890706 1.279031 2.706667
v -0.838956 1.182214 2.706667
v -0.769313 1.097354 2.706667
v -0.684453 1.027710 2.706667
v -0.587636 0.975961 2.706667
v -0.482584 0.944094 2.706667
v 0.373333 0.933333 2.706667
v 0.933333 1.493333 2.706667
v 0.482584 0.944094 2.706667
v 0.587636 0.975961 2.706667
v 0.684453 1.027710 2.706667
v 0.769313 1.097354 2.706667
v 0.838956 1.182214 2.706667
v 0.890706 1.279031 2.706667
v 0.922573 1.384083 2.706667
v -0.373333 0.933333 1.493333
v -0.922573 1.384083 1.493333
v -0.890706 1.279031 1.493333
v -0.838956 1.182214 1.493333
v -0.769313 1.097354 1.493333
v -0.684453 1.027710 1.493333
v -0.587636 0.975961 1.493333
v -0.482584 0.944094 1.493333
v 0.373333 0.933333 1.493333
v 0.482584 0.944094 1.493333
v 0.587636 0.975961 1.493333
v 0.684453 1.027710 1.493333
v 0.769313 1.097354 1.493333
v 0.838956 1.182214 1.493333
v 0.890706 1.279031 1.493333
v 0.922573 1.384083 1.493333
vn -0.9979 -0.0654 -0.0000
vn 0.9979 -0.0654 -0.0000
vn -1.0000 -0.0000 -0.0000
vn 1.0000 -0.0000 -0.0000
vn -0.9988 -0.0491 -0.0000
vn -0.0491 -0.9988 -0.0000
vn -0.9808 -0.1951 -0.0000
vn -0.9239 -0.3827 -0.0000
vn -0.8315 -0.5556 -0.0000
vn -0.7071 -0.7071 -0.0000
vn -0.5556 -0.8315 -0.0000
vn -0.3827 -0.9239 -0.0000
vn -0.1951 -0.9808 -0.0000
vn 0.0491 -0.9988 -0.0000
vn 0.9988 -0.0491 -0.0000
vn 0.1951 -0.9808 -0.0000
vn 0.3827 -0.9239 -0.0000
vn 0.5556 -0.8315 -0.0000
vn 0.7071 -0.7071 -0.0000
vn 0.8315 -0.5556 -0.0000
vn 0.9239 -0.3827 -0.0000
vn 0.9808 -0.1951 -0.0000
vt 0.000000 0.000000
vt 0.612500 0.425000
vt 0.450000 0.425000
vt 0.450000 0.825000
vt 0.612500 0.825000
s 1
f 174/263/174 185/264/185 172/265/172
f 171/266/171 175/267/175 173/263/173
f 187/263/187 203/263/187 204/263/188 188/263/188
f 178/263/178 195/263/178 196/263/179 179/263/179
f 188/263/188 204/263/188 205/263/189 189/263/189
f 176/263/176 193/263/176 201/263/184 184/263/184
f 179/263/179 196/263/179 197/263/180 180/263/180
f 189/263/189 205/263/189 206/263/190 190/263/190
f 180/263/180 197/263/180 198/263/181 181/263/181
f 190/263/190 206/263/190 207/263/191 191/263/191
f 181/263/181 198/263/181 199/263/182 182/263/182
f 191/263/191 207/263/191 208/263/192 192/263/192
f 182/263/182 199/263/182 200/263/183 183/263/183
f 184/263/184 201/263/184 202/263/186 186/263/186
f 183/263/183 200/263/183 193/263/176 176/263/176
f 186/263/186 202/263/186 203/263/187 187/263/187
f 177/263/177 194/263/177 195/263/178 178/263/178
f 192/263/192 208/263/192 172/265/172 185/264/185
f 177/263/177 175/267/175 171/266/171 194/263/177
